<svg xmlns="http://www.w3.org/2000/svg" xmlns:xlink="http://www.w3.org/1999/xlink" width="14" height="14" version="1.1" viewBox="0 0 14 14"><title>icon-up-arrow-o</title><desc>Created with Sketch.</desc><g id="icon-up-arrow-o" fill="none" fill-rule="evenodd" stroke="none" stroke-width="1"><polygon id="Shape" fill="#2C8AF8" fill-rule="nonzero" points="13 6.5 14 6.5 14 14 0 14 0 6.5 1 6.5 .997 13 13 13"/><polygon id="Shape" fill="#2C8AF8" fill-rule="nonzero" points="6.5 0 7.5 0 7.5 10.41 6.5 10.41" transform="translate(7.000000, 5.205128) scale(1, -1) translate(-7.000000, -5.205128)"/><polygon id="Shape" fill="#2C8AF8" fill-rule="nonzero" points="7.01 7.004 11.029 11.022 10.381 11.67 6.362 7.652" transform="translate(8.695578, 9.336951) scale(1, -1) translate(-8.695578, -9.336951)"/><polygon id="Shape" fill="#2C8AF8" fill-rule="nonzero" points="2.993 11.013 7.012 6.994 7.66 7.642 3.641 11.661" transform="translate(5.326784, 9.327512) scale(1, -1) translate(-5.326784, -9.327512)"/></g></svg>